<svg xmlns="http://www.w3.org/2000/svg" width="207" height="25" viewBox="0 0 207 25">
  <defs>
      <path id="a" d="M207 24.106H0V.398h207v23.708z"/>
  </defs>
  <g fill="none" fill-rule="evenodd">
      <path fill="#2C2C2C" d="M182.921 1.618v1.026h2.106v3.739h1.28v-3.74h2.115V1.619h-5.5zm-4.683 2.497c0 .078.009.242.025.5a6.875 6.875 0 0 0-.328-.291l-3.254-2.706h-.875v4.765h1.174V3.815c0-.12-.006-.264-.018-.429.057.055.117.108.18.16l3.396 2.837h.875V1.618h-1.175v2.497zm-10.366 1.198h-2.823V1.618h-1.28V5.2c0 .46.088.765.273.934.182.167.5.249.97.249h2.896c.47 0 .788-.082.97-.25.185-.168.275-.474.275-.933V1.618h-1.281v3.695zm-13.25 0h3.3v-2.67h-3.3v2.67zm3.337-3.695h-3.375c-.47 0-.788.08-.97.248-.185.17-.275.476-.275.935V5.2c0 .46.09.765.275.934.182.167.5.249.97.249h3.375c.47 0 .788-.082.97-.25.185-.168.275-.474.275-.933V2.8c0-.459-.09-.764-.274-.935-.183-.167-.5-.248-.971-.248zm-10.215 0h-2.736c-.47 0-.787.08-.97.248-.185.17-.274.476-.274.935V5.2c0 .46.09.765.275.934.181.167.499.249.969.249h2.736c.47 0 .788-.082.97-.248.185-.17.275-.476.275-.935v-.626l-1.28-.265v1.004h-2.664v-2.67h2.663v.884l1.28-.202v-.524c0-.459-.089-.764-.274-.935-.182-.167-.5-.248-.97-.248zm-9.667 1.772h-2.76v-.764h2.796v.549l1.157-.271V2.72c0-.413-.098-.705-.29-.866-.192-.16-.503-.237-.954-.237h-2.603c-.47 0-.787.08-.97.248-.185.17-.275.476-.275.935v.503c0 .459.09.765.275.934.182.168.5.249.97.249h2.752v.826h-3.026V4.75l-1.157.238v.21c0 .46.092.766.28.936.185.166.503.248.974.248h2.833c.47 0 .788-.082.974-.248.188-.17.28-.476.28-.935v-.626c0-.46-.092-.766-.28-.935-.186-.168-.505-.249-.976-.249zm-9.627 2.993h1.28V1.618h-1.28v4.765zm-6.047-1.36c-.289.192-.78.29-1.46.29h-1.268v-2.67h1.784c.943 0 1.402.43 1.402 1.314 0 .513-.15.86-.458 1.065zm1.063-2.788c-.468-.41-1.146-.617-2.016-.617h-3.056v4.765h2.78c.74 0 1.307-.08 1.686-.238.423-.179.756-.476.994-.884.215-.386.324-.818.324-1.287 0-.74-.24-1.325-.712-1.739z"/>
      <path fill="#EA2D2E" d="M90.559 11.646c-.915-1.077-2.132-1.781-3.649-2.114l-3.212-.745c-.582-.146-.872-.498-.872-1.057 0-.705.58-1.057 1.746-1.057 1.454 0 2.972.581 4.553 1.744l2.432-5.822C89.02 1.245 86.525.57 84.073.57c-2.828 0-5.083.758-6.767 2.274C75.622 4.359 74.78 6.3 74.78 8.665c0 3.28 1.154 5.16 3.462 5.636l4.302.997c.603.186.905.54.905 1.058 0 .768-.592 1.152-1.777 1.152-1.415 0-3.264-.768-5.551-2.303l-2.557 6.204c2.91 1.655 5.82 2.482 8.732 2.482 2.91 0 5.238-.787 6.984-2.362 1.747-1.574 2.62-3.573 2.62-5.998 0-.746-.115-1.456-.343-2.129a5.129 5.129 0 0 0-.998-1.756zm-34.23 5.598c-.427.301-1.045.452-1.855.452h-1.341v-3.55h1.34c1.663 0 2.495.592 2.495 1.774 0 .583-.213 1.023-.639 1.324zM53.133 6.238h1.06c1.33 0 1.995.519 1.995 1.557 0 1.038-.665 1.556-1.996 1.556h-1.06V6.238zm6.922 5.387c1.122-.25 1.98-.784 2.573-1.604.591-.82.888-1.822.888-3.005 0-1.888-.634-3.373-1.902-4.453C60.346 1.485 58.57.945 56.281.945H45.65v22.262H56.25c5.53 0 8.296-2.096 8.296-6.29 0-2.905-1.498-4.67-4.491-5.292zm-25.662 3.701c-.668.893-1.626 1.339-2.877 1.339-1.25 0-2.22-.446-2.909-1.339-.584-.768-.875-1.723-.875-2.864 0-1.515.448-2.647 1.345-3.394.667-.56 1.48-.841 2.44-.841 1.188 0 2.105.4 2.75 1.198.647.8.97 1.812.97 3.037 0 1.141-.28 2.096-.844 2.864zM31.516.786c-3.274 0-6.015.964-8.225 2.892-2.46 2.135-3.69 5.058-3.69 8.768 0 3.544 1.24 6.415 3.721 8.613 2.293 2.031 5.025 3.047 8.194 3.047 3.21 0 5.963-1.036 8.257-3.109 2.439-2.218 3.659-5.068 3.659-8.55 0-3.193-.98-5.867-2.94-8.023C38.301 1.999 35.31.786 31.515.786zM10.68 17.244c-.426.301-1.045.452-1.855.452h-1.34v-3.55h1.34c1.662 0 2.494.592 2.494 1.774 0 .583-.213 1.023-.639 1.324zM7.484 6.238h1.06c1.33 0 1.996.519 1.996 1.557 0 1.038-.666 1.556-1.996 1.556h-1.06V6.238zm6.923 5.387c1.121-.25 1.98-.784 2.572-1.604.592-.82.889-1.822.889-3.005 0-1.888-.635-3.373-1.903-4.453C14.697 1.485 12.92.945 10.633.945H0v22.262h10.602c5.53 0 8.295-2.096 8.295-6.29 0-2.905-1.498-4.67-4.49-5.292zm187.057 7.281v-1.402h3.408v-3.991h-3.408v-1.537h5.092l-.651-4.012h-8.356v15.099h8.398L207 18.906h-5.536zm-11.513-4.326c-.369.32-.904.48-1.606.48h-.382v-3.786h.485c.661 0 1.17.164 1.523.49.355.327.533.8.533 1.419 0 .612-.185 1.078-.553 1.397zm3.868.485c.426-.657.64-1.432.64-2.325 0-1.554-.525-2.74-1.575-3.553-1.05-.815-2.57-1.223-4.56-1.223h-4.276v15.099h3.915v-6.467l3.13 6.467h4.296l-3.326-6.632a3.317 3.317 0 0 0 1.756-1.366zM176.59 17.1c0 .84-.089 1.43-.268 1.774-.179.345-.48.516-.899.516-.42 0-.718-.168-.893-.505-.176-.337-.263-.932-.263-1.785V7.964h-3.936v9.137c0 1.39.102 2.442.306 3.156a4.332 4.332 0 0 0 1.027 1.836c.406.433.94.77 1.601 1.01.66.241 1.38.362 2.158.362.779 0 1.498-.12 2.16-.361.66-.24 1.197-.578 1.61-1.01a4.27 4.27 0 0 0 1.012-1.811c.2-.705.3-1.765.3-3.182V7.964h-3.915v9.137zm-18.138-9.137l-.403 3.816h3.068v11.283h3.935V11.78h3.067l-.423-3.816h-9.244zm-6.595 15.099h3.915V7.965h-3.915v15.098zm-7.564-8.488l-5.63-6.61h-1.714v15.098h3.915v-6.55l5.557 6.55h1.776V7.964h-3.904v6.611zm-15.007.005c-.369.32-.903.48-1.606.48h-.382v-3.786h.485c.661 0 1.169.164 1.524.49.354.327.531.8.531 1.419 0 .612-.184 1.078-.552 1.397zm3.868.485c.428-.657.64-1.432.64-2.325 0-1.554-.525-2.74-1.575-3.553-1.049-.815-2.57-1.223-4.56-1.223h-4.276v15.099h3.915v-6.467l3.13 6.467h4.296l-3.326-6.632a3.314 3.314 0 0 0 1.756-1.366zM115.947 17.1c0 .84-.09 1.43-.27 1.774-.179.345-.478.516-.898.516-.42 0-.717-.168-.893-.505-.175-.337-.264-.932-.264-1.785V7.964h-3.935v9.137c0 1.39.102 2.442.305 3.156a4.353 4.353 0 0 0 1.028 1.836c.406.433.94.77 1.6 1.01.661.241 1.381.362 2.159.362a6.27 6.27 0 0 0 2.159-.361c.66-.24 1.198-.578 1.611-1.01a4.29 4.29 0 0 0 1.012-1.811c.2-.705.3-1.765.3-3.182V7.964h-3.914v9.137zm-8.464-5.125l-.61-4.012H98.58v15.099h3.915v-5.56h3.13v-3.99h-3.13v-1.537h4.988zM65.143.397c-.032.006-.03.044-.028.082.418 3.902.816 7.822 1.23 11.726h5.96c.362-2.955.725-5.92 1.093-8.863.123-.981.236-1.968.383-2.945h-8.638z"/>
  </g>
</svg>
