<svg xmlns="http://www.w3.org/2000/svg" xmlns:xlink="http://www.w3.org/1999/xlink" width="22" height="23" viewBox="0 0 22 23">
  <defs>
      <path id="a" d="M0 .007h4.993v7.03H0z"/>
      <path id="b" d="M0 22.853h21.12V.084H0z"/>
  </defs>
  <g fill="none" fill-rule="evenodd">
      <path fill="#666" d="M6.978 12.33h1.24L7.6 10.323l-.623 2.007zm-1.9 2.059L6.913 9.31H8.33l1.827 5.079H8.834l-.34-1.091h-1.78l-.345 1.09h-1.29z"/>
      <g>
          <path fill="#666" d="M12.245 11.51h1.174c.206 0 .377-.06.512-.18a.613.613 0 0 0 .203-.483.6.6 0 0 0-.203-.482.759.759 0 0 0-.512-.174h-1.174v1.32zm-1.244 2.86V9.048h2.442c.627 0 1.108.154 1.445.462.336.309.505.719.505 1.231 0 .367-.093.682-.278.945-.185.262-.414.459-.685.589l1.114 2.095h-1.388l-.94-1.845h-.971v1.845h-1.244zM19.825 12.825l-.064 3.648-3.691 1.999.58 1.03 4.26-2.307.077-4.37zM4.713 18.33l-3.542-1.955-.003-3.55H.006l.004 4.258 4.084 2.255zM10.465 21.506l-3.447-1.903-.62 1.007 4.062 2.243 3.879-2.1-.58-1.03zM10.547 1.403l3.516 1.72.622-1.012L10.543.084 6.77 1.954l.58 1.033zM17.058 3.272l-.622 1.012 3.51 1.718-.073 4.15h1.161l.087-4.892zM3.74 6.886l-.581 1.029L.454 6.318l.58-1.029z"/>
          <path fill="#666" d="M4.993 4.155l-.58-1.032L0 5.311l.004 4.841h1.162l-.004-4.098zM2.723 14.654l.658.98-2.573 1.809-.658-.979z"/>
          <mask id="c" fill="#fff">
              <use xlink:href="#b"/>
          </mask>
          <path fill="#666" d="M9.96 22.08h1.162v-3.193H9.96zM17.111 15.354l.612-1.01 2.654 1.684-.612 1.01zM17.558 7.662l-.466-1.088 2.86-1.283.466 1.088zM10.192 4.087h1.161V.893h-1.161z" mask="url(#c)"/>
      </g>
  </g>
</svg>
