<svg xmlns="http://www.w3.org/2000/svg" xmlns:xlink="http://www.w3.org/1999/xlink" width="23px" height="23px" viewBox="0 0 23 23" version="1.1">
  <!-- Generator: Sketch 46.2 (44496) - http://www.bohemiancoding.com/sketch -->
  <title>Facebook</title>
  <desc>Created with Sketch.</desc>
  <defs/>
  <g id="Functional-Icons" stroke="none" stroke-width="1" fill="none" fill-rule="evenodd">
      <g id="Artboard-Copy" transform="translate(-24.000000, -1071.000000)" fill="#000000">
          <g id="Group-2" transform="translate(24.000000, 1070.000000)">
              <path d="M1.23330615,1 C0.55201544,1 0,1.55201544 0,2.23330615 L0,22.1130626 C0,22.7941858 0.55201544,23.3463687 1.23330615,23.3463687 L11.9358582,23.3463687 L11.9358582,14.6927124 L9.02373185,14.6927124 L9.02373185,11.3201685 L11.9358582,11.3201685 L11.9358582,8.833043 C11.9358582,5.94670472 13.6987408,4.37505573 16.2735291,4.37505573 C17.5068352,4.37505573 18.5669091,4.4669048 18.8757799,4.50793128 L18.8757799,7.52429837 L17.0900397,7.52513565 C15.6896972,7.52513565 15.4185875,8.19051813 15.4185875,9.16694829 L15.4185875,11.3201685 L18.7582265,11.3201685 L18.3233458,14.6927124 L15.4185875,14.6927124 L15.4185875,23.3463687 L21.1130626,23.3463687 C21.7941858,23.3463687 22.3463687,22.7941858 22.3463687,22.1130626 L22.3463687,2.23330615 C22.3463687,1.55201544 21.7941858,1 21.1130626,1 L1.23330615,1 Z" id="Facebook"/>
          </g>
      </g>
  </g>
</svg>
