<svg xmlns="http://www.w3.org/2000/svg" width="14" height="14" viewBox="0 0 14 14">
  <g fill="none" fill-rule="evenodd">
      <path d="M0 0h14v14H0z"/>
      <path fill="#666" fill-rule="nonzero" d="M7 4.667a2.333 2.333 0 1 0-.001 4.665A2.333 2.333 0 0 0 7 4.667zm5.215 1.75a5.247 5.247 0 0 0-4.632-4.632V.583H6.417v1.202a5.247 5.247 0 0 0-4.632 4.632H.583v1.166h1.202a5.247 5.247 0 0 0 4.632 4.632v1.202h1.166v-1.202a5.247 5.247 0 0 0 4.632-4.632h1.202V6.417h-1.202zM7 11.083A4.08 4.08 0 0 1 2.917 7 4.08 4.08 0 0 1 7 2.917 4.08 4.08 0 0 1 11.083 7 4.08 4.08 0 0 1 7 11.083z"/>
  </g>
</svg>
