<svg xmlns="http://www.w3.org/2000/svg" xmlns:xlink="http://www.w3.org/1999/xlink" width="23px" height="23px" viewBox="0 0 23 23" version="1.1">
  <!-- Generator: Sketch 48.2 (47327) - http://www.bohemiancoding.com/sketch -->
  <title>LinkedIn</title>
  <desc>Created with Sketch.</desc>
  <defs/>
  <g id="Symbols" stroke="none" stroke-width="1" fill="none" fill-rule="evenodd">
      <path d="M19.0422098,19.0415891 L15.7281192,19.0415891 L15.7281192,13.8553693 C15.7281192,12.6188703 15.7070143,11.027933 14.0062073,11.027933 C12.2811918,11.027933 12.0180012,12.3755431 12.0180012,13.7672253 L12.0180012,19.0415891 L8.70763501,19.0415891 L8.70763501,8.37740534 L11.8845438,8.37740534 L11.8845438,9.8355059 L11.930478,9.8355059 C12.3724395,8.99689634 13.4537554,8.11297331 15.0657976,8.11297331 C18.4220981,8.11297331 19.0422098,10.3209187 19.0422098,13.1930478 L19.0422098,19.0415891 L19.0422098,19.0415891 Z M4.97082557,6.92054624 C3.9062694,6.92054624 3.0477964,6.05959032 3.0477964,4.9981378 C3.0477964,3.93730602 3.9062694,3.07635009 4.97082557,3.07635009 C6.03103662,3.07635009 6.89137182,3.93730602 6.89137182,4.9981378 C6.89137182,6.05959032 6.03103662,6.92054624 4.97082557,6.92054624 L4.97082557,6.92054624 Z M3.31098696,19.0415891 L6.62880199,19.0415891 L6.62880199,8.37740534 L3.31098696,8.37740534 L3.31098696,19.0415891 Z M20.6927374,0 L1.64804469,0 C0.738671633,0 0,0.721291124 0,1.61142148 L0,20.7337058 C0,21.6238361 0.738671633,22.3463687 1.64804469,22.3463687 L20.6927374,22.3463687 C21.6039727,22.3463687 22.345748,21.6238361 22.345748,20.7337058 L22.345748,1.61142148 C22.345748,0.721291124 21.6039727,0 20.6927374,0 L20.6927374,0 Z" id="LinkedIn" fill="#000000"/>
  </g>
</svg>
