<svg xmlns="http://www.w3.org/2000/svg" xmlns:xlink="http://www.w3.org/1999/xlink" width="24px" height="24px" viewBox="0 0 24 24" version="1.1">
  <!-- Generator: Sketch 46.2 (44496) - http://www.bohemiancoding.com/sketch -->
  <title>Pinterest</title>
  <desc>Created with Sketch.</desc>
  <defs/>
  <g id="Functional-Icons" stroke="none" stroke-width="1" fill="none" fill-rule="evenodd">
      <g id="Artboard-Copy" transform="translate(-68.000000, -1070.000000)" fill="#000000">
          <g id="Group-2" transform="translate(24.000000, 1070.000000)">
              <path d="M56.0007357,0 C49.3731453,0 44,5.37240956 44,12 C44,17.0839975 47.1629675,21.4263642 51.6274678,23.1744942 C51.5222563,22.2253832 51.4273452,20.7686082 51.6686695,19.7326793 C51.8871858,18.796076 53.0761496,13.7672594 53.0761496,13.7672594 C53.0761496,13.7672594 52.7171061,13.0484365 52.7171061,11.9860208 C52.7171061,10.3173513 53.6838749,9.07173513 54.8882894,9.07173513 C55.9124464,9.07173513 56.406867,9.83985285 56.406867,10.7617413 C56.406867,11.7917842 55.7513182,13.3309626 55.4128755,14.757572 C55.1303495,15.9516861 56.0117719,16.9258124 57.1896996,16.9258124 C59.3226242,16.9258124 60.9625996,14.6766401 60.9625996,11.4305334 C60.9625996,8.55744942 58.8980993,6.54812998 55.9499693,6.54812998 C52.5353771,6.54812998 50.5312078,9.10925812 50.5312078,11.7564684 C50.5312078,12.7872471 50.9285101,13.8938075 51.4244022,14.4949111 C51.5222563,14.613366 51.5369712,14.7178418 51.5075414,14.8392397 C51.416309,15.2181484 51.2139792,16.0333538 51.1742489,16.1996321 C51.122011,16.4196199 50.9998774,16.4659718 50.7725322,16.3607603 C49.2738197,15.6625383 48.3372164,13.4714899 48.3372164,11.711588 C48.3372164,7.92618026 51.087431,4.44978541 56.2663397,4.44978541 C60.4284488,4.44978541 63.6642551,7.41630901 63.6642551,11.3805028 C63.6642551,15.5161251 61.0560392,18.8446352 57.4369099,18.8446352 C56.2207235,18.8446352 55.0781116,18.2126303 54.6866953,17.4665849 C54.6866953,17.4665849 54.0848559,19.7576947 53.9391784,20.3190681 C53.6676885,21.3616186 52.9363581,22.6683017 52.4470877,23.4651134 C53.5698345,23.812385 54.7632128,24 56.0007357,24 C62.6275904,24 68.0007357,18.6275904 68.0007357,12 C68.0007357,5.37240956 62.6275904,0 56.0007357,0" id="Pinterest"/>
          </g>
      </g>
  </g>
</svg>
