<svg xmlns="http://www.w3.org/2000/svg" xmlns:xlink="http://www.w3.org/1999/xlink" width="27px" height="23px" viewBox="0 0 27 23" version="1.1">
  <!-- Generator: Sketch 46.2 (44496) - http://www.bohemiancoding.com/sketch -->
  <title>Twitter</title>
  <desc>Created with Sketch.</desc>
  <defs/>
  <g id="Functional-Icons" stroke="none" stroke-width="1" fill="none" fill-rule="evenodd">
      <g id="Artboard-Copy" transform="translate(-113.000000, -1071.000000)" fill="#000000">
          <g id="Group-2" transform="translate(24.000000, 1070.000000)">
              <path d="M115.755943,3.63556881 C114.771496,4.08259639 113.713551,4.3847233 112.603148,4.52060526 C113.736549,3.8249618 114.606883,2.72347621 115.016752,1.41105293 C113.956164,2.05508931 112.781364,2.52285993 111.531012,2.77498309 C110.529633,1.68261643 109.103022,1 107.524226,1 C104.492591,1 102.034751,3.51652178 102.034751,6.62046246 C102.034751,7.06097653 102.083391,7.48996668 102.176952,7.90132024 C97.6147698,7.66693389 93.5700118,5.42929078 90.8626106,2.02883483 C90.3901072,2.85895734 90.1194063,3.82446076 90.1194063,4.85449808 C90.1194063,6.80444422 91.0885862,8.52481399 92.5614892,9.53270536 C91.6615993,9.50354486 90.8152428,9.25072024 90.0750724,8.82974672 C90.0746809,8.85319538 90.0746809,8.87674424 90.0746809,8.90039332 C90.0746809,11.6236441 91.9668474,13.8953579 94.4780247,14.4116291 C94.0173633,14.5400957 93.5324308,14.6087381 93.0317416,14.6087381 C92.6780492,14.6087381 92.3341435,14.5735651 91.9990458,14.507929 C92.6975248,16.7409625 94.7247482,18.3659343 97.1268034,18.4113285 C95.2481426,19.9187564 92.8812217,20.8173209 90.3094646,20.8173209 C89.8664193,20.8173209 89.4294417,20.7907658 89,20.7388581 C91.4292623,22.3335672 94.3146842,23.2639978 97.4146312,23.2639978 C107.511406,23.2639978 113.032688,14.6995265 113.032688,7.27221485 C113.032688,7.02850916 113.027403,6.78610617 113.016833,6.5451061 C114.089263,5.75266177 115.019981,4.76270762 115.755943,3.63556881" id="Twitter"/>
          </g>
      </g>
  </g>
</svg>
