<svg xmlns="http://www.w3.org/2000/svg" xmlns:xlink="http://www.w3.org/1999/xlink" width="24px" height="16px" viewBox="0 0 24 16" version="1.1">
  <!-- Generator: Sketch 46.2 (44496) - http://www.bohemiancoding.com/sketch -->
  <title>Youtube</title>
  <desc>Created with Sketch.</desc>
  <defs/>
  <g id="Functional-Icons" stroke="none" stroke-width="1" fill="none" fill-rule="evenodd">
      <g id="Artboard-Copy" transform="translate(-68.000000, -1121.000000)" fill="#000000">
          <g id="Group-2" transform="translate(24.000000, 1070.000000)">
              <path d="M53.8910986,61.9344309 L53.8900473,55.6167751 L60.0639813,58.7866093 L53.8910986,61.9344309 Z M67.4463958,54.5223237 C67.4463958,54.5223237 67.2231052,52.9728691 66.5380446,52.2905403 C65.6691752,51.394974 64.6952595,51.3905495 64.2486335,51.3381151 C61.0512291,51.1106795 56.2549548,51.1106795 56.2549548,51.1106795 L56.2450228,51.1106795 C56.2450228,51.1106795 51.4488603,51.1106795 48.2513441,51.3381151 C47.8046958,51.3905495 46.831138,51.394974 45.9619554,52.2905403 C45.2768725,52.9728691 45.0539398,54.5223237 45.0539398,54.5223237 C45.0539398,54.5223237 44.8254371,56.3418746 44.8254371,58.1614476 L44.8254371,59.8672807 C44.8254371,61.6868096 45.0539398,63.5063605 45.0539398,63.5063605 C45.0539398,63.5063605 45.2768725,65.0558371 45.9619554,65.7381659 C46.831138,66.6337102 47.9728684,66.6054018 48.4813903,66.6992641 C50.3093445,66.8717559 56.2500112,66.9251368 56.2500112,66.9251368 C56.2500112,66.9251368 61.0512291,66.9180267 64.2486335,66.6905691 C64.6952595,66.6381567 65.6691752,66.6337102 66.5380446,65.7381659 C67.2231052,65.0558371 67.4463958,63.5063605 67.4463958,63.5063605 C67.4463958,63.5063605 67.6745629,61.6868096 67.6745629,59.8672807 L67.6745629,58.1614476 C67.6745629,56.3418746 67.4463958,54.5223237 67.4463958,54.5223237 L67.4463958,54.5223237 Z" id="Youtube"/>
          </g>
      </g>
  </g>
</svg>
